<svg width="324" height="112" viewBox="0 0 324 112" fill="none" xmlns="http://www.w3.org/2000/svg">
<g clip-path="url(#clip0_71_7)">
<path d="M48.758 110.987C25.8788 106.649 8.90038 91.1887 3.21952 69.5549C2.05128 65.1613 1.77183 62.9371 1.77183 56.2094C1.71685 48.9784 1.88177 47.5916 3.27449 42.5848C5.27654 35.5231 7.28317 31.0746 11.2369 25.1799C19.2542 13.1113 32.169 4.43855 47.1454 1.04269C53.9945 -0.45845 64.7927 -0.568284 71.5273 0.818436C79.8791 2.59875 91.0667 7.15707 91.0117 8.82755C91.0117 9.0518 90.2879 10.1044 89.3991 11.1616L87.7865 13.0518L83.4434 11.0518C77.0982 8.10444 73.6439 7.21657 67.2987 6.88248C47.9838 5.82527 31.5047 19.1158 25.549 40.6397C23.4874 48.1454 23.0979 60.2689 24.6602 67.889C29.0583 89.2985 44.1446 103.871 62.9052 104.983C71.6464 105.541 81.1664 102.813 89.0693 97.6417C92.5786 95.3076 98.6992 89.5228 101.15 86.2413C102.428 84.461 102.708 84.3512 104.156 84.9049C105.603 85.4038 105.768 85.683 105.658 87.8523C105.493 91.4678 103.711 94.525 99.9224 97.5273C92.7389 103.367 83.9473 107.706 74.3127 110.264C68.8014 111.71 54.7733 112.154 48.7626 110.987H48.758Z" fill="#FCFBFB"/>
<path d="M173.013 101.811C169.728 101.143 166.613 99.4221 164.606 97.1383C161.376 93.4129 161.157 91.6876 161.157 68.0538V46.7542H157.258C153.808 46.7542 153.359 46.6443 153.359 45.697C153.359 44.864 154.138 44.475 157.033 43.7519C162.6 42.3606 165.994 39.5826 174.181 29.9625C178.245 25.125 178.41 25.2898 178.41 35.0792V43.3674L185.534 43.5322L192.603 43.697V45.0883V46.4796L185.534 46.6443L178.41 46.8091V68.0538C178.41 81.2345 178.634 90.0766 179.024 91.4084C180.247 95.9667 186.093 97.0239 190.935 93.5228C193.661 91.5777 194.555 91.3535 194.555 92.7448C194.555 94.191 192.049 97.0834 189.153 98.9186C184.531 101.866 178.689 102.923 173.009 101.811H173.013Z" fill="#FCFBFB"/>
<path d="M223.389 101.811C216.655 100.589 210.42 97.2528 206.576 92.8592C204.015 89.8569 201.01 83.683 200.176 79.6785C199.227 75.1201 199.452 68.5573 200.675 63.6603C203.516 52.6489 211.863 44.8091 223.389 42.4704C226.954 41.7473 228.456 41.6924 232.406 42.1913C241.202 43.3583 247.267 47.7519 250.942 55.5367C252.499 58.8182 252.724 59.9303 252.889 65.2667L253.113 71.2163H235.241H217.37V72.7723C217.37 76.333 218.648 81.7242 220.21 84.9508C222.716 90.1223 226.945 92.7356 233.624 93.294C238.911 93.7379 243.758 92.3466 248.042 89.2345C249.824 87.8981 251.606 86.786 251.881 86.786C252.215 86.786 252.44 87.3992 252.44 88.1224C252.44 89.8477 247.318 95.4633 243.644 97.7974C238.297 101.189 229.561 102.914 223.38 101.802L223.389 101.811ZM237.308 60.5481C236.918 50.4841 235.305 46.8686 230.628 45.5871C226.065 44.3652 221.832 46.6992 219.715 51.5917C218.547 54.3743 217.379 61.2118 217.379 65.4406V67.8891H227.453H237.587L237.308 60.5481Z" fill="#FCFBFB"/>
<path d="M279.337 101.536C266.587 98.6989 259.688 88.3557 259.688 72.397C259.688 65.7792 260.521 61.6648 263.027 56.3239C268.983 43.5322 285.797 37.9716 298.766 44.5894C300.603 45.5367 301.103 45.5916 301.552 44.9784C302.221 44.031 301.552 27.7931 300.773 26.9053C300.439 26.5162 299.215 25.903 298.047 25.514C295.097 24.681 295.097 23.0655 297.992 22.4018C305.895 20.4019 318.31 17.784 318.535 18.0632C318.7 18.173 318.759 35.4681 318.7 56.4337C318.7 81.1246 318.865 94.9186 319.199 95.6417C319.534 96.2001 320.647 97.0879 321.76 97.5868C323.098 98.255 323.707 98.8637 323.597 99.4769C323.432 100.31 322.095 100.479 313.188 100.868C302.056 101.367 302.001 101.367 302.001 98.3648C302.001 96.4747 301.946 96.4747 299.33 98.2001C294.208 101.591 285.746 103.038 279.346 101.536H279.337ZM297.374 95.6417C298.322 95.3076 299.765 94.5845 300.548 93.9713L301.996 92.8591V71.8386C301.996 54.3788 301.886 50.7083 301.162 49.761C300.718 49.0928 299.046 48.0356 297.433 47.3125C295.097 46.3102 293.869 46.1454 291.253 46.3651C285.517 46.864 281.398 50.7587 279.062 57.8204C277.614 62.3787 277 75.2254 278.004 81.0651C280.12 93.1886 287.354 98.6394 297.378 95.6372L297.374 95.6417Z" fill="#FCFBFB"/>
<path d="M119.402 99.8659C119.402 99.3671 120.071 98.6989 120.96 98.3648C121.794 97.9757 123.022 97.1977 123.745 96.5845L124.969 95.5272V74.6166C124.914 51.5916 125.079 52.4291 121.404 50.9279C117.506 49.317 118.733 48.4795 129.701 45.2575C135.213 43.6465 140.554 42.1454 141.558 41.9761L143.34 41.587V68.5572V95.5272L144.618 96.5845C145.287 97.1977 146.51 97.9757 147.403 98.3648C148.237 98.6989 148.906 99.3671 148.906 99.8659C148.906 100.589 147.014 100.699 134.154 100.699C121.294 100.699 119.402 100.589 119.402 99.8659Z" fill="#FCFBFB"/>
<path d="M128.977 33.9121C123.631 31.2439 121.853 24.5712 125.138 19.6192C126.641 17.4499 131.149 15.0609 133.824 15.0609C136.55 15.1158 140.004 16.7863 141.842 18.8961C143.514 20.8961 144.178 23.5689 143.789 26.9602C143.065 33.4132 135.327 37.0242 128.982 33.9121H128.977Z" fill="#FCFBFB"/>
<path d="M72.8651 74.4518C71.4174 69.8339 68.9114 65.3305 66.7994 63.1612C64.6828 61.1017 60.3993 58.6578 56.89 57.6006C55.7217 57.2665 54.7184 56.7676 54.7184 56.4335C54.6634 55.9347 55.0528 55.7104 61.0636 52.9279C65.7961 50.7036 69.7498 46.5343 71.6968 41.6373C73.424 37.2437 74.9267 36.6305 75.985 39.9119C78.491 47.6418 83.1089 52.0354 91.4607 54.7585C93.0184 55.3169 94.3561 55.9255 94.3561 56.1498C94.3561 56.3741 93.2979 56.9278 92.0197 57.3168C83.3334 59.8752 78.2161 65.1017 75.2061 74.4472C74.6472 76.0032 74.1479 77.3396 74.0379 77.3396C73.928 77.3396 73.424 76.0032 72.8696 74.4472L72.8651 74.4518Z" fill="#F72F35"/>
<path d="M92.739 42.0309C91.7357 39.2483 89.4542 36.7495 86.9482 35.6374L84.7766 34.6351L86.2793 33.6328C89.5641 31.3536 91.4562 29.4635 92.1251 27.8479C93.0734 25.5688 94.0172 25.7335 95.5748 28.5161C96.798 30.7953 99.359 32.5756 102.978 33.6877C103.867 33.9669 103.592 34.2461 101.366 35.079C97.9159 36.4154 96.4132 37.8616 94.9655 41.2529C94.2966 42.754 93.6873 43.976 93.6278 43.976C93.5178 43.976 93.1284 43.0881 92.739 42.0309Z" fill="#F72F35"/>
</g>
<defs>
<clipPath id="clip0_71_7">
<rect width="324" height="112" fill="white"/>
</clipPath>
</defs>
</svg>
