<svg width="326" height="125" viewBox="0 0 326 125" fill="none" xmlns="http://www.w3.org/2000/svg">
<g clip-path="url(#clip0_71_7)">
<path d="M80.7847 114.225C59.0829 122.67 36.4919 118.557 20.2101 103.221C16.8911 100.114 15.4755 98.3755 11.9104 92.6702C8.03186 86.567 7.43687 85.3036 5.96475 80.3195C3.92042 73.2699 3.2648 68.434 3.494 61.3399C3.89772 46.8566 10.2542 32.6579 21.1554 21.8418C26.1683 16.9393 35.2675 11.1239 41.7136 8.73117C49.7397 5.81518 61.6429 3.75232 62.4815 5.19809C62.6004 5.38827 62.5443 6.66454 62.3508 8.03208L61.9849 10.4896L57.2418 11.095C50.299 11.9579 46.8991 13.0355 41.341 16.1146C24.4008 25.4534 17.4687 45.457 23.8238 66.8663C26.0529 74.324 32.1471 84.8117 37.51 90.446C52.5851 106.272 73.1011 110.635 89.6003 101.636C97.3091 97.4778 103.937 90.1198 107.899 81.5462C109.638 77.7071 111.763 69.5578 112.103 65.4761C112.243 63.289 112.422 63.0477 113.943 62.7502C115.435 62.4061 115.723 62.5554 116.779 64.4534C118.555 67.607 118.664 71.144 117.042 75.6978C114.045 84.4569 108.888 92.7951 102.073 100.07C98.1656 104.217 86.5044 112.028 80.7886 114.223L80.7847 114.225Z" fill="#FCFBFB"/>
<path d="M175.013 110.811C171.728 110.143 168.613 108.422 166.606 106.138C163.376 102.413 163.157 100.687 163.157 77.0537V55.754H159.258C155.808 55.754 155.359 55.6442 155.359 54.6968C155.359 53.8639 156.138 53.4749 159.033 52.7518C164.6 51.3605 167.994 48.5824 176.181 38.9624C180.245 34.1249 180.41 34.2896 180.41 44.079V52.3673L187.534 52.5321L194.603 52.6968V54.0881V55.4794L187.534 55.6442L180.41 55.809V77.0537C180.41 90.2344 180.634 99.0764 181.024 100.408C182.247 104.967 188.093 106.024 192.935 102.523C195.661 100.578 196.555 100.353 196.555 101.745C196.555 103.191 194.049 106.083 191.153 107.919C186.531 110.866 180.689 111.923 175.009 110.811H175.013Z" fill="#FCFBFB"/>
<path d="M225.389 110.811C218.655 109.589 212.42 106.253 208.576 101.859C206.015 98.8568 203.01 92.6829 202.176 88.6784C201.227 84.12 201.452 77.5571 202.675 72.6601C205.516 61.6487 213.863 53.809 225.389 51.4703C228.954 50.7472 230.456 50.6923 234.406 51.1911C243.202 52.3582 249.267 56.7518 252.942 64.5366C254.499 67.8181 254.724 68.9302 254.889 74.2665L255.113 80.2162H237.241H219.37V81.7722C219.37 85.3328 220.648 90.7241 222.21 93.9506C224.716 99.1222 228.945 101.736 235.624 102.294C240.911 102.738 245.758 101.346 250.042 98.2344C251.824 96.898 253.606 95.7859 253.881 95.7859C254.215 95.7859 254.44 96.3991 254.44 97.1222C254.44 98.8476 249.318 104.463 245.644 106.797C240.297 110.189 231.561 111.914 225.38 110.802L225.389 110.811ZM239.308 69.548C238.918 59.484 237.305 55.8685 232.628 54.587C228.065 53.365 223.832 55.6991 221.715 60.5915C220.547 63.3741 219.379 70.2116 219.379 74.4404V76.8889H229.453H239.587L239.308 69.548Z" fill="#FCFBFB"/>
<path d="M281.337 110.536C268.587 107.699 261.688 97.3557 261.688 81.397C261.688 74.7792 262.521 70.6648 265.027 65.3239C270.983 52.5322 287.797 46.9716 300.766 53.5894C302.603 54.5367 303.103 54.5916 303.552 53.9784C304.221 53.031 303.552 36.7931 302.773 35.9053C302.439 35.5162 301.215 34.903 300.047 34.514C297.097 33.681 297.097 32.0655 299.992 31.4018C307.895 29.4019 320.31 26.784 320.535 27.0632C320.7 27.173 320.759 44.4681 320.7 65.4337C320.7 90.1246 320.865 103.919 321.199 104.642C321.534 105.2 322.647 106.088 323.76 106.587C325.098 107.255 325.707 107.864 325.597 108.477C325.432 109.31 324.095 109.479 315.188 109.868C304.056 110.367 304.001 110.367 304.001 107.365C304.001 105.475 303.946 105.475 301.33 107.2C296.208 110.591 287.746 112.038 281.346 110.536H281.337ZM299.374 104.642C300.322 104.308 301.765 103.585 302.548 102.971L303.996 101.859V80.8386C303.996 63.3788 303.886 59.7083 303.162 58.761C302.718 58.0928 301.046 57.0356 299.433 56.3125C297.097 55.3102 295.869 55.1454 293.253 55.3651C287.517 55.864 283.398 59.7587 281.062 66.8204C279.614 71.3787 279 84.2254 280.004 90.0651C282.12 102.189 289.354 107.639 299.378 104.637L299.374 104.642Z" fill="#FCFBFB"/>
<path d="M121.402 108.866C121.402 108.367 122.071 107.699 122.96 107.365C123.794 106.976 125.022 106.198 125.745 105.584L126.969 104.527V83.6166C126.914 60.5916 127.079 61.4291 123.404 59.9279C119.506 58.317 120.733 57.4795 131.701 54.2575C137.213 52.6465 142.554 51.1454 143.558 50.9761L145.34 50.587V77.5572V104.527L146.618 105.584C147.287 106.198 148.51 106.976 149.403 107.365C150.237 107.699 150.906 108.367 150.906 108.866C150.906 109.589 149.014 109.699 136.154 109.699C123.294 109.699 121.402 109.589 121.402 108.866Z" fill="#FCFBFB"/>
<path d="M130.977 42.9121C125.631 40.2439 123.853 33.5712 127.138 28.6192C128.641 26.4499 133.149 24.0609 135.824 24.0609C138.55 24.1158 142.004 25.7863 143.842 27.8961C145.514 29.8961 146.178 32.5689 145.789 35.9602C145.065 42.4132 137.327 46.0242 130.982 42.9121H130.977Z" fill="#FCFBFB"/>
</g>
<defs>
<clipPath id="clip0_71_7">
<rect width="326" height="125" fill="white"/>
</clipPath>
</defs>
</svg>
