<?xml version="1.0" encoding="utf-8"?>
<!DOCTYPE svg PUBLIC "-//W3C//DTD SVG 1.0//EN" "http://www.w3.org/TR/2001/REC-SVG-20010904/DTD/svg10.dtd">
<svg version="1.0" xmlns="http://www.w3.org/2000/svg" width="1672px" height="933px" viewBox="0 0 1672 933" preserveAspectRatio="xMidYMid meet">
 <g fill="#000000">
  <path d="M0 466.60 l0 -466.60 836 0 836 0 0 466.60 0 466.60 -836 0 -836 0 0 -466.60z m688.97 107.17 c28.19 -7.41 59.42 -25.88 65.74 -38.76 3.77 -7.78 2.55 -10.45 -1.82 -4.13 -8.02 11.42 -24.91 24.42 -40.83 31.35 -20.66 8.87 -48.60 10.21 -69.14 3.28 -31.23 -10.33 -54.56 -39.37 -62.34 -77.04 -2.07 -9.72 -2.31 -14.95 -1.82 -33.42 0.49 -18.83 0.97 -23.45 3.77 -33.42 8.51 -30.50 26.13 -53.22 50.79 -65.62 13.97 -6.93 24.55 -8.99 43.99 -8.14 16.53 0.61 23.45 2.07 36.33 7.78 7.41 3.28 10.57 2.92 6.08 -0.85 -3.77 -3.04 -21.87 -9.48 -35 -12.39 -46.05 -10.33 -98.91 11.79 -126.13 52.74 -8.63 13 -13.12 22.60 -17.38 38.03 -2.79 10.21 -3.40 14.34 -3.28 26.13 0.49 56.75 42.77 104.62 102.56 116.04 12.27 2.31 36.45 1.58 48.48 -1.58z m242.05 -20.41 c7.90 -2.55 8.38 -4.13 1.34 -4.13 -7.90 0 -13.24 -3.40 -14.82 -9.36 -0.85 -3.04 -1.34 -28.07 -1.34 -70.60 l0 -65.98 -7.90 9.11 c-9.23 10.69 -17.38 17.86 -22.72 20.66 -2.43 1.09 -3.16 1.94 -1.82 1.94 1.94 0 2.07 3.04 2.07 46.54 0 51.64 0.49 55.41 7.53 63.55 4.37 4.98 11.18 8.75 18.35 10.21 5.83 1.22 11.30 0.61 19.32 -1.94z m114.59 -0.73 c6.20 -1.94 20.05 -9.72 20.05 -11.18 0 -0.24 -2.55 0.36 -5.71 1.34 -7.05 2.19 -29.41 1.58 -35 -0.97 -9.11 -4.01 -13.85 -8.38 -17.50 -16.04 -4.62 -9.48 -6.20 -19.20 -6.20 -39.37 0 -26.25 3.04 -41.31 9.96 -48.60 3.52 -3.77 2.19 -3.52 -7.41 1.22 -15.07 7.41 -27.22 22.72 -31.71 40.22 -4.01 15.92 -2.92 27.58 4.25 42.65 8.87 18.47 24.42 29.89 45.32 33.29 7.29 1.22 14.70 0.49 23.94 -2.55z m120.30 1.09 l4.86 -1.22 -8.14 -1.58 c-13.61 -2.67 -19.20 -6.93 -24.55 -18.71 -4.62 -10.33 -5.95 -20.54 -5.35 -43.99 0.49 -17.25 1.09 -22.48 3.16 -29.04 4.86 -14.82 13.49 -23.21 25.76 -25.15 l6.68 -1.09 -6.80 -0.85 c-8.87 -1.22 -18.23 0.73 -28.92 6.08 -24.67 12.27 -37.18 44.23 -29.41 74.85 4.50 17.62 12.76 29.28 25.52 36.09 12.76 6.68 24.06 8.14 37.18 4.62z m53.22 -0.85 l8.14 0 -2.43 -2.43 c-2.43 -2.43 -2.43 -4.01 -2.43 -86.39 0 -70.96 -0.24 -83.84 -1.70 -83.36 -0.85 0.36 -8.75 2.19 -17.25 4.01 -8.63 1.82 -15.92 3.52 -16.16 3.77 -0.24 0.12 0.73 1.34 2.19 2.43 2.55 2.07 2.67 3.04 2.79 24.67 0.12 12.39 0.24 23.33 0.12 24.30 -0.24 13.37 0.97 109.48 1.46 111.67 0.73 2.79 0.97 2.92 8.87 2.07 4.50 -0.36 11.79 -0.73 16.40 -0.73z m-377.42 -2.19 c-1.82 -2.07 -2.07 -8.02 -2.07 -60.27 0 -45.93 -0.36 -57.96 -1.46 -57.47 -0.85 0.36 -9.96 2.92 -20.05 5.83 -14.22 4.01 -18.11 5.59 -16.40 6.44 4.98 2.79 4.98 3.16 5.10 54.07 0 44.11 -0.24 49.33 -2.07 51.40 -1.94 2.07 -1.22 2.19 18.47 2.19 19.68 0 20.41 -0.12 18.47 -2.19z m-138.04 -78.62 c2.92 -3.16 8.51 -7.29 12.39 -9.36 l7.29 -3.65 -6.32 -2.79 c-8.99 -4.25 -17.38 -12.64 -21.39 -21.39 l-3.28 -7.53 -3.52 7.29 c-4.13 8.63 -13.12 17.50 -21.87 21.63 l-6.32 2.79 7.53 3.89 c9.60 4.74 15.80 11.30 20.29 20.90 l3.52 7.66 3.28 -6.93 c1.82 -3.77 5.59 -9.48 8.38 -12.52z m375.11 6.93 c-1.22 -20.05 -15.68 -39.25 -33.78 -44.59 l-3.04 -0.85 2.67 2.79 c5.59 6.20 6.80 11.42 7.41 32.44 l0.49 19.68 13.37 0 13.49 0 -0.61 -9.48z m-339.87 -71.93 l-4.25 -4.25 -4.25 4.25 -4.37 4.25 4.25 4.25 4.25 4.25 4.25 -4.25 4.25 -4.25 -4.13 -4.25z m89.19 0.61 c5.35 -2.19 11.18 -8.51 12.15 -13 1.70 -7.41 -4.01 -15.92 -13.24 -19.81 -4.50 -1.94 -4.86 -1.82 -10.94 1.09 -8.14 4.13 -12.27 9.96 -11.30 16.53 0.85 6.32 4.62 11.30 10.81 14.46 6.20 3.04 7.05 3.04 12.52 0.73z"/>
 </g>
 <g fill="#fcfbfb">
  <path d="M636.84 579 c-49.94 -9.48 -87 -43.26 -99.40 -90.53 -2.55 -9.60 -3.16 -14.46 -3.16 -29.16 -0.12 -15.80 0.24 -18.83 3.28 -29.77 4.37 -15.43 8.75 -25.15 17.38 -38.03 17.50 -26.37 45.69 -45.32 78.38 -52.74 14.95 -3.28 38.52 -3.52 53.22 -0.49 18.23 3.89 42.65 13.85 42.53 17.50 0 0.49 -1.58 2.79 -3.52 5.10 l-3.52 4.13 -9.48 -4.37 c-13.85 -6.44 -21.39 -8.38 -35.24 -9.11 -42.16 -2.31 -78.13 26.73 -91.13 73.76 -4.50 16.40 -5.35 42.89 -1.94 59.54 9.60 46.78 42.53 78.62 83.48 81.05 19.08 1.22 39.86 -4.74 57.11 -16.04 7.66 -5.10 21.02 -17.74 26.37 -24.91 2.79 -3.89 3.40 -4.13 6.56 -2.92 3.16 1.09 3.52 1.70 3.28 6.44 -0.36 7.90 -4.25 14.58 -12.52 21.14 -15.68 12.76 -34.87 22.24 -55.90 27.83 -12.03 3.16 -42.65 4.13 -55.77 1.58z"/>
  <path d="M908.06 558.95 c-7.17 -1.46 -13.97 -5.22 -18.35 -10.21 -7.05 -8.14 -7.53 -11.91 -7.53 -63.55 l0 -46.54 -8.51 0 c-7.53 0 -8.51 -0.24 -8.51 -2.31 0 -1.82 1.70 -2.67 8.02 -4.25 12.15 -3.04 19.56 -9.11 37.43 -30.13 8.87 -10.57 9.23 -10.21 9.23 11.18 l0 18.11 15.55 0.36 15.43 0.36 0 3.04 0 3.04 -15.43 0.36 -15.55 0.36 0 46.42 c0 28.80 0.49 48.12 1.34 51.03 2.67 9.96 15.43 12.27 26 4.62 5.95 -4.25 7.90 -4.74 7.90 -1.70 0 3.16 -5.47 9.48 -11.79 13.49 -10.09 6.44 -22.84 8.75 -35.24 6.32z"/>
  <path d="M1018.02 558.95 c-14.70 -2.67 -28.31 -9.96 -36.70 -19.56 -5.59 -6.56 -12.15 -20.05 -13.97 -28.80 -2.07 -9.96 -1.58 -24.30 1.09 -35 6.20 -24.06 24.42 -41.19 49.58 -46.30 7.78 -1.58 11.06 -1.70 19.68 -0.61 19.20 2.55 32.44 12.15 40.46 29.16 3.40 7.17 3.89 9.60 4.25 21.26 l0.49 13 -39.01 0 -39.01 0 0 3.40 c0 7.78 2.79 19.56 6.20 26.61 5.47 11.30 14.70 17.01 29.28 18.23 11.54 0.97 22.12 -2.07 31.47 -8.87 3.89 -2.92 7.78 -5.35 8.38 -5.35 0.73 0 1.22 1.34 1.22 2.92 0 3.77 -11.18 16.04 -19.20 21.14 -11.67 7.41 -30.74 11.18 -44.23 8.75z m30.38 -90.16 c-0.85 -21.99 -4.37 -29.89 -14.58 -32.69 -9.96 -2.67 -19.20 2.43 -23.82 13.12 -2.55 6.08 -5.10 21.02 -5.10 30.26 l0 5.35 21.99 0 22.12 0 -0.61 -16.04z"/>
  <path d="M1140.14 558.35 c-27.83 -6.20 -42.89 -28.80 -42.89 -63.67 0 -14.46 1.82 -23.45 7.29 -35.12 13 -27.95 49.70 -40.10 78.01 -25.64 4.01 2.07 5.10 2.19 6.08 0.85 1.46 -2.07 0 -37.55 -1.70 -39.49 -0.73 -0.85 -3.40 -2.19 -5.95 -3.04 -6.44 -1.82 -6.44 -5.35 -0.12 -6.80 17.25 -4.37 44.35 -10.09 44.84 -9.48 0.36 0.24 0.49 38.03 0.36 83.84 0 53.95 0.36 84.09 1.09 85.67 0.73 1.22 3.16 3.16 5.59 4.25 2.92 1.46 4.25 2.79 4.01 4.13 -0.36 1.82 -3.28 2.19 -22.72 3.04 -24.30 1.09 -24.42 1.09 -24.42 -5.47 0 -4.13 -0.12 -4.13 -5.83 -0.36 -11.18 7.41 -29.65 10.57 -43.62 7.29z m39.37 -12.88 c2.07 -0.73 5.22 -2.31 6.93 -3.65 l3.16 -2.43 0 -45.93 c0 -38.15 -0.24 -46.17 -1.82 -48.24 -0.97 -1.46 -4.62 -3.77 -8.14 -5.35 -5.10 -2.19 -7.78 -2.55 -13.49 -2.07 -12.52 1.09 -21.51 9.60 -26.61 25.03 -3.16 9.96 -4.50 38.03 -2.31 50.79 4.62 26.49 20.41 38.40 42.29 31.84z"/>
  <path d="M791.04 554.70 c0 -1.09 1.46 -2.55 3.40 -3.28 1.82 -0.85 4.50 -2.55 6.08 -3.89 l2.67 -2.31 0 -45.69 c-0.12 -50.31 0.24 -48.48 -7.78 -51.76 -8.51 -3.52 -5.83 -5.35 18.11 -12.39 12.03 -3.52 23.69 -6.80 25.88 -7.17 l3.89 -0.85 0 58.93 0 58.93 2.79 2.31 c1.46 1.34 4.13 3.04 6.08 3.89 1.82 0.73 3.28 2.19 3.28 3.28 0 1.58 -4.13 1.82 -32.20 1.82 -28.07 0 -32.20 -0.24 -32.20 -1.82z"/>
  <path d="M811.94 410.59 c-11.67 -5.83 -15.55 -20.41 -8.38 -31.23 3.28 -4.74 13.12 -9.96 18.96 -9.96 5.95 0.12 13.49 3.77 17.50 8.38 3.65 4.37 5.10 10.21 4.25 17.62 -1.58 14.10 -18.47 21.99 -32.32 15.19z"/>
 </g>
 <g fill="#f72f35">
  <path d="M689.46 499.17 c-3.16 -10.09 -8.63 -19.93 -13.24 -24.67 -4.62 -4.50 -13.97 -9.84 -21.63 -12.15 -2.55 -0.73 -4.74 -1.82 -4.74 -2.55 -0.12 -1.09 0.73 -1.58 13.85 -7.66 10.33 -4.86 18.96 -13.97 23.21 -24.67 3.77 -9.60 7.05 -10.94 9.36 -3.77 5.47 16.89 15.55 26.49 33.78 32.44 3.40 1.22 6.32 2.55 6.32 3.04 0 0.49 -2.31 1.70 -5.10 2.55 -18.96 5.59 -30.13 17.01 -36.70 37.43 -1.22 3.40 -2.31 6.32 -2.55 6.32 -0.24 0 -1.34 -2.92 -2.55 -6.32z"/>
  <path d="M732.84 428.33 c-2.19 -6.08 -7.17 -11.54 -12.64 -13.97 l-4.74 -2.19 3.28 -2.19 c7.17 -4.98 11.30 -9.11 12.76 -12.64 2.07 -4.98 4.13 -4.62 7.53 1.46 2.67 4.98 8.26 8.87 16.16 11.30 1.94 0.61 1.34 1.22 -3.52 3.04 -7.53 2.92 -10.81 6.08 -13.97 13.49 -1.46 3.28 -2.79 5.95 -2.92 5.95 -0.24 0 -1.09 -1.94 -1.94 -4.25z"/>
 </g>
</svg>